<svg width="64" height="38" viewBox="0 0 64 38" fill="none" xmlns="http://www.w3.org/2000/svg">
<g clip-path="url(#clip0_79_934)">
<path d="M24.9627 14.8805L23.6495 19.6047C23.5102 20.1156 23.4334 20.6734 23.3557 21.201H23.2477L21.6407 14.8805H19.8863C19.8934 14.697 19.8904 14.5104 19.8742 14.3217C19.7914 13.3823 19.427 12.6055 18.779 11.9924C18.1319 11.3794 17.3658 11.1145 16.4805 11.1979C15.6205 11.2782 14.9331 11.5775 14.4193 12.0956C13.9045 12.6138 13.6743 13.1654 13.7258 13.7514C13.7581 14.1225 13.8954 14.4353 14.1366 14.6908C14.3779 14.9462 14.707 15.0547 15.1249 15.015C15.4751 14.9817 15.7588 14.8336 15.9758 14.5698C16.1928 14.306 16.2867 14.0151 16.2584 13.6961C16.2352 13.4292 16.1151 13.1623 15.8971 12.8954C15.7275 12.6847 15.6366 12.52 15.6265 12.3991C15.6094 12.2093 15.675 12.0623 15.8214 11.957C15.9677 11.8517 16.1959 11.7849 16.5047 11.7557C17.1306 11.6974 17.6676 11.8704 18.1158 12.276C18.564 12.6816 18.8183 13.229 18.8789 13.9192C18.9092 14.2623 18.892 14.5813 18.8375 14.8805C18.7083 15.5958 18.3419 16.187 17.7302 16.6488C17.5041 16.8219 17.2366 16.9783 16.9317 17.1191C16.0667 17.5184 14.8866 17.7895 13.3866 17.9313C11.1245 18.144 9.60129 18.7258 8.81899 19.6767C8.03567 20.6286 7.69045 21.6347 7.78433 22.6951C7.84792 23.4197 8.1457 24.0067 8.67767 24.4561C9.20963 24.9055 9.81428 25.0994 10.4896 25.0358C11.0569 24.9827 11.5061 24.7574 11.8382 24.3612C12.1693 23.965 12.3116 23.4948 12.2631 22.9516C12.2298 22.5721 12.0956 22.2874 11.8594 22.0966C11.6232 21.9058 11.3597 21.8245 11.068 21.8516C10.7591 21.8808 10.5158 22.0278 10.3372 22.2916C10.1585 22.5564 10.0858 22.8776 10.1191 23.2571C10.1232 23.2998 10.1343 23.378 10.1524 23.4886L10.1787 23.6429C10.211 24.0047 10.0636 24.2017 9.73857 24.232C9.45492 24.2591 9.16522 24.1298 8.87148 23.8441C8.57672 23.5584 8.40815 23.1747 8.36575 22.692C8.29509 21.8902 8.606 21.1875 9.29745 20.5827C9.98891 19.979 10.8065 19.6318 11.7504 19.5443C12.9193 19.4348 13.8762 19.6902 14.6212 20.3116C15.3661 20.9331 15.779 21.7088 15.8607 22.6398C15.9839 24.037 15.3944 25.3027 14.0932 26.4371C12.7921 27.5726 11.1649 28.2315 9.21064 28.415C7.14839 28.609 5.36877 28.1304 3.86978 26.9804C2.37179 25.8293 1.55819 24.5343 1.43202 23.0944C1.3664 22.3531 1.54608 21.69 1.97105 21.1072C2.39501 20.5243 2.87045 20.2074 3.39636 20.1584C3.80517 20.1198 4.23923 20.271 4.69851 20.6098C5.13055 20.9258 5.47577 21.0717 5.73418 21.0467C5.96736 21.0248 6.13795 20.931 6.24596 20.7641C6.35296 20.5973 6.39939 20.4284 6.38425 20.2553C6.32369 19.5651 5.71702 19.2742 4.56527 19.3826C4.38963 19.3993 4.25033 19.3649 4.14535 19.2784C4.04138 19.1929 3.91621 18.9979 3.77186 18.6945C3.62752 18.3911 3.53465 18.0105 3.49528 17.5539C3.40544 16.5362 3.72846 15.5958 4.46534 14.7304C5.20121 13.866 6.03297 13.3896 6.95963 13.303C7.53601 13.2488 8.04274 13.3645 8.47982 13.6492C8.9169 13.9338 9.15916 14.3352 9.20459 14.8524C9.23487 15.1975 9.19752 15.5437 9.09355 15.8929C9.02895 16.1077 8.99866 16.2453 9.00371 16.3058C9.01784 16.4695 9.10062 16.5446 9.25001 16.53C9.55889 16.5008 9.83346 16.2537 10.0747 15.7876C10.316 15.3216 10.4139 14.8305 10.3674 14.3123C10.3069 13.6221 9.96468 13.057 9.34086 12.6159C8.71703 12.1749 7.97107 11.9945 7.10296 12.0758C6.32672 12.1488 5.59589 12.4345 4.91251 12.9339C4.22812 13.4323 3.68303 14.0558 3.27825 14.8023C2.87247 15.5489 2.70591 16.3319 2.77758 17.1504C2.84117 17.875 3.09757 18.6372 3.54676 19.4379C2.26984 19.7497 1.33713 20.3419 0.748636 21.2135C0.160142 22.0893 -0.0811106 23.1205 0.0238695 24.3102C0.109671 25.285 0.40846 26.1754 0.922257 26.9835C1.43505 27.7915 2.09925 28.4536 2.91486 28.9676C3.73048 29.4827 4.57335 29.8528 5.44347 30.0801C6.31359 30.3074 7.40478 30.4888 8.76549 30.3616C10.4431 30.2031 11.8664 29.6797 12.9849 29.0531C13.9327 28.5224 14.7372 27.803 15.4014 26.899L15.3994 26.9147H19.4937L19.9883 21.7755C20.0347 21.2969 20.065 20.8017 20.0963 20.3231H20.2356C20.2669 20.834 20.3739 21.3126 20.498 21.8235L22.0122 26.9147H24.4842L26.169 21.5201C26.2921 21.1374 26.3699 20.7214 26.4466 20.3231H26.5233L27.0946 26.9147H31.1899L29.274 14.8816H24.9637L24.9627 14.8805Z" fill="#044C26"/>
<path d="M37.4895 14.6897C33.9515 14.6897 31.0464 17.1472 31.0464 20.9299C31.0464 24.7126 33.9354 27.1065 37.4895 27.1065C41.0437 27.1065 43.9327 24.7919 43.9327 20.9299C43.9327 17.068 41.0276 14.6897 37.4895 14.6897ZM37.4895 23.3071C36.2076 23.3071 35.3112 22.3656 35.3112 20.9935C35.3112 19.7163 36.146 18.6476 37.4895 18.6476C38.8331 18.6476 39.6679 19.7163 39.6679 20.9935C39.6679 22.3656 38.7715 23.3071 37.4895 23.3071Z" fill="#044C26"/>
<path d="M52.3574 22.2854V22.1894C53.9331 21.6473 54.6135 20.8809 54.6135 19.0615C54.6135 16.0295 52.3887 14.8805 49.7622 14.8805H44.6484V26.9136H48.7891V23.0517H48.8668L50.7211 26.9136H55.6037L53.0701 23.0037C52.8389 22.6524 52.5755 22.4605 52.3594 22.2854M49.0818 20.2115H48.7881V18.169H49.1131C49.8389 18.169 50.4728 18.2806 50.4728 19.2064C50.4728 20.1323 49.7773 20.2115 49.0818 20.2115Z" fill="#044C26"/>
<path d="M60.0231 23.6262V22.4449H63.2835V19.317H60.0231V18.168H63.5924V14.8805H55.7593V26.9136H63.7166V23.6262H60.0231Z" fill="#044C26"/>
<path d="M20.7593 4.94211C20.7593 1.60566 18.5133 0 15.4739 0H9.47998V13.4521H14.0396V9.40251H16.4581C19.1008 9.40251 20.7593 7.68946 20.7593 4.94211ZM14.5069 6.01289H14.0406V3.6753H14.4898C15.267 3.6753 16.234 3.72847 16.234 4.78154C16.234 5.8346 15.3357 6.01289 14.5069 6.01289Z" fill="#044C26"/>
<path d="M23.3436 0L18.8184 13.4521H23.8271L24.2067 11.7745H27.7821L28.2141 13.4521H33.2228L28.5765 0H23.3426H23.3436ZM25.0526 8.58195L25.9166 4.47813H26.0892C26.1761 5.04845 26.2619 5.63755 26.4001 6.20891L26.9533 8.58195H25.0536H25.0526Z" fill="#044C26"/>
<path d="M38.3758 0H33.6426V13.4521H38.3758V0Z" fill="#044C26"/>
<path d="M48.4643 4.03188C48.4643 5.17357 48.6712 6.33298 48.862 7.45695H48.7237L44.4741 0H39.9316V13.4521H44.4569V9.08138C44.4569 8.18888 44.3186 7.31515 44.1631 6.3872H44.3014L48.4643 13.4521H52.9896V0H48.4643V4.03188Z" fill="#044C26"/>
<path d="M63.9999 0H54.05V4.37178L56.6584 4.24667V13.4521H61.3916V4.24667L63.9999 4.37178V0Z" fill="#044C26"/>
<path d="M9.47509 36.85C9.39131 36.8062 9.38525 36.7822 9.38525 36.6154C9.38525 36.3057 9.40948 36.0586 9.41554 35.9596C9.42159 35.8918 9.43371 35.8605 9.46399 35.8605C9.49932 35.8605 9.50537 35.8793 9.50537 35.9283C9.50537 35.9835 9.50537 36.0701 9.52354 36.1577C9.61338 36.6154 10.0091 36.7885 10.4098 36.7885C10.9842 36.7885 11.2658 36.362 11.2658 35.9658C11.2658 35.5394 11.0922 35.2912 10.5774 34.8523L10.3079 34.6229C9.67294 34.0849 9.5296 33.7012 9.5296 33.28C9.5296 32.6179 10.0091 32.1664 10.7692 32.1664C11.0024 32.1664 11.176 32.1915 11.3264 32.228C11.4404 32.253 11.4879 32.2592 11.5363 32.2592C11.5848 32.2592 11.5959 32.2717 11.5959 32.302C11.5959 32.3322 11.5717 32.5366 11.5717 32.9578C11.5717 33.0569 11.5596 33.0996 11.5303 33.0996C11.495 33.0996 11.4879 33.0683 11.4828 33.0193C11.4768 32.9453 11.4404 32.7774 11.4051 32.7097C11.3688 32.6408 11.2073 32.3812 10.6561 32.3812C10.2433 32.3812 9.91924 32.6471 9.91924 33.0986C9.91924 33.451 10.0747 33.6741 10.6501 34.1381L10.8176 34.2736C11.5242 34.8492 11.6918 35.2328 11.6918 35.7281C11.6918 35.9815 11.5959 36.4517 11.183 36.7551C10.9256 36.9407 10.6016 37.0147 10.2786 37.0147C9.99697 37.0147 9.72139 36.9709 9.4761 36.8479" fill="#044C26"/>
<path d="M16.5533 34.8523C16.5533 36.0336 15.7094 36.9991 14.4335 36.9991C12.9668 36.9991 12.3672 35.873 12.3672 34.9326C12.3672 34.1099 12.9839 32.8786 14.4638 32.8786C15.0563 32.8786 15.5782 33.0641 15.9547 33.3978C16.1162 33.2925 16.1828 33.1695 16.1828 33.0391C16.1828 32.9526 16.1465 32.8535 16.0274 32.7357C16.0031 32.7107 16.0031 32.6742 16.0274 32.6367C16.0869 32.5439 16.2848 32.3833 16.3867 32.3833C16.416 32.3833 16.4402 32.401 16.4705 32.4448C16.5119 32.5136 16.5361 32.6179 16.5361 32.7169C16.5361 33.0568 16.3322 33.3415 16.0748 33.5208C16.3746 33.8482 16.5543 34.3007 16.5543 34.8502M15.99 35.0066C15.99 33.7627 15.2471 33.0704 14.4264 33.0704C13.6058 33.0704 12.9234 33.6021 12.9234 34.772C12.9234 35.9418 13.5765 36.7884 14.5819 36.7884C14.9826 36.7884 15.989 36.5778 15.989 35.0066" fill="#044C26"/>
<path d="M17.5341 33.133C17.5341 32.9411 17.5523 32.8796 17.5997 32.8796C17.6421 32.8796 17.743 33.0037 17.7854 33.0464C17.8389 33.1079 18.6717 33.9869 19.5105 34.871C19.9779 35.3413 20.5765 35.9783 20.7319 36.1264L20.6663 33.5531C20.6603 33.2195 20.6249 33.1079 20.4624 33.0641C20.3605 33.0454 20.2706 33.0391 20.2282 33.0391C20.1687 33.0391 20.1566 33.0141 20.1566 32.9891C20.1566 32.9578 20.204 32.9526 20.2636 32.9526C20.521 32.9526 20.7723 32.9713 20.8268 32.9713C20.8864 32.9713 21.0721 32.9526 21.3063 32.9526C21.3719 32.9526 21.3901 32.9588 21.3901 32.9891C21.3901 33.0141 21.3719 33.0329 21.3366 33.0391C21.3013 33.0454 21.2528 33.0454 21.1872 33.0579C21.0499 33.0892 21.0075 33.1507 21.0075 33.5219L20.9954 36.6268C20.9954 36.9365 20.9833 36.9678 20.9419 36.9678C20.9005 36.9678 20.84 36.924 20.5462 36.6393C20.522 36.6268 19.6902 35.7729 19.1694 35.2474C18.5465 34.5791 17.948 33.9358 17.7975 33.7752L17.8753 36.1941C17.8874 36.6206 17.9237 36.7822 18.0731 36.8187C18.169 36.8427 18.271 36.8427 18.3184 36.8427C18.3659 36.8427 18.3901 36.8614 18.3901 36.8865C18.3901 36.9177 18.3598 36.9292 18.2942 36.9292C17.9712 36.9292 17.7551 36.9115 17.7128 36.9115C17.6704 36.9115 17.4493 36.9292 17.1919 36.9292C17.1384 36.9292 17.1021 36.9229 17.1021 36.8865C17.1021 36.8625 17.1263 36.8427 17.1858 36.8427C17.2282 36.8427 17.2938 36.8427 17.3716 36.8187C17.5028 36.7749 17.5331 36.6081 17.5331 36.1566C17.5331 33.2059 17.5391 34.1589 17.5331 33.1319" fill="#044C26"/>
<path d="M29.0196 36.1326C29.0438 36.3547 29.0852 36.7019 29.3426 36.7884C29.5162 36.8437 29.6535 36.8437 29.7141 36.8437C29.7443 36.8437 29.7807 36.85 29.7807 36.8802C29.7807 36.9177 29.7625 36.9292 29.6908 36.9292C29.5596 36.9292 28.8762 36.9115 28.6552 36.8927C28.5179 36.8802 28.4876 36.8614 28.4876 36.8312C28.4876 36.8062 28.4997 36.7999 28.529 36.7884C28.5714 36.7697 28.5643 36.6769 28.5532 36.5653L28.2655 33.3363L26.7807 36.5903C26.6555 36.8625 26.6373 36.9177 26.5828 36.9177C26.5404 36.9177 26.5112 36.8552 26.3971 36.6331C26.2416 36.3307 25.7268 35.2599 25.6965 35.1984C25.643 35.0869 24.9536 33.5594 24.888 33.3926L24.6427 36.3057C24.6367 36.4048 24.6306 36.4913 24.6306 36.5966C24.6306 36.7509 24.7023 36.801 24.7921 36.8197C24.8941 36.8448 24.9718 36.8448 25.0081 36.8448C25.0445 36.8448 25.0677 36.8573 25.0677 36.876C25.0677 36.9188 25.0384 36.9313 24.9778 36.9313C24.7568 36.9313 24.4509 36.9136 24.4035 36.9136C24.35 36.9136 24.0623 36.9313 23.9008 36.9313C23.8402 36.9313 23.7988 36.925 23.7988 36.8823C23.7988 36.8573 23.8291 36.8458 23.8584 36.8458C23.9058 36.8458 23.9482 36.8458 24.0381 36.827C24.2359 36.7905 24.248 36.5674 24.2773 36.3141L24.7083 32.2936C24.7144 32.2259 24.7386 32.1696 24.7739 32.1696C24.8093 32.1696 24.8335 32.1946 24.8638 32.2624L26.6969 36.1535L28.4573 32.2686C28.4815 32.2134 28.5048 32.1696 28.5472 32.1696C28.5896 32.1696 28.6067 32.2196 28.6188 32.3364L29.0206 36.1347L29.0196 36.1326Z" fill="#044C26"/>
<path d="M31.115 35.5821C31.115 35.285 31.0726 35.1734 30.9828 35.0128C30.9474 34.9451 30.2519 33.7752 30.0662 33.5093C29.9047 33.2748 29.8441 33.1997 29.7604 33.1319C29.6766 33.0704 29.5989 33.0454 29.4787 33.0391C29.4424 33.0391 29.4121 33.0204 29.4121 32.9891C29.4121 32.9703 29.4363 32.9526 29.4838 32.9526C29.5797 32.9526 30.0349 32.9713 30.047 32.9713C30.0834 32.9713 30.2802 32.9526 30.5023 32.9526C30.5618 32.9526 30.58 32.9713 30.58 32.9891C30.58 33.0141 30.5618 33.0266 30.5144 33.0391C30.4306 33.0579 30.4185 33.0881 30.4185 33.1382C30.4185 33.1997 30.4548 33.2622 30.4962 33.3425C30.574 33.4968 31.3643 34.8085 31.4542 34.9628C31.5501 34.747 32.2203 33.6147 32.3051 33.4593C32.4192 33.2549 32.4424 33.1997 32.4424 33.1319C32.4424 33.0516 32.3707 33.0516 32.3051 33.0391C32.2567 33.0329 32.2395 33.0141 32.2395 32.9891C32.2395 32.9703 32.2516 32.9526 32.3112 32.9526C32.4545 32.9526 32.5807 32.9713 32.6766 32.9713C32.7543 32.9713 33.1016 32.9526 33.2035 32.9526C33.257 32.9526 33.2752 32.9713 33.2752 32.9891C33.2752 33.0204 33.2449 33.0391 33.2035 33.0391C33.0783 33.0454 32.9875 33.0579 32.9047 33.1194C32.8149 33.1809 32.7795 33.2372 32.6826 33.3728C32.3354 33.868 31.755 34.8762 31.6651 35.0931C31.5935 35.285 31.6046 35.4205 31.6046 35.5821V36.0336C31.6046 36.0774 31.6046 36.3057 31.6167 36.5288C31.6288 36.6769 31.6409 36.7822 31.8256 36.8197C31.9034 36.8385 32.0053 36.8447 32.0477 36.8447C32.0952 36.8447 32.1133 36.8635 32.1133 36.8823C32.1133 36.9136 32.0952 36.9313 32.0417 36.9313C31.7429 36.9313 31.3704 36.9136 31.3532 36.9136C31.3411 36.9136 30.9818 36.9313 30.8142 36.9313C30.7546 36.9313 30.7304 36.9136 30.7304 36.8823C30.7304 36.8635 30.7486 36.8447 30.79 36.8447C30.8384 36.8447 30.8919 36.8385 30.9394 36.826C31.0413 36.8072 31.0827 36.6779 31.0948 36.5288C31.113 36.3057 31.113 36.0836 31.113 36.0336V35.5821H31.115ZM30.8627 32.1675C30.7011 32.1675 30.6052 32.2227 30.4972 32.3468C30.4548 32.4021 30.4427 32.4021 30.4195 32.4021C30.4024 32.4021 30.3902 32.3708 30.4256 32.3155C30.5871 32.0622 30.7849 31.8891 30.9646 31.8891C31.0484 31.8891 31.216 31.9204 31.4855 32.0309C31.653 32.0987 31.7671 32.1362 31.8509 32.1362C32.0306 32.1362 32.1325 32.0747 32.2698 31.9256C32.3001 31.888 32.3233 31.8755 32.3354 31.8755C32.3596 31.8755 32.3657 31.9193 32.3415 31.9558C32.2092 32.1716 32.0003 32.4323 31.755 32.4323C31.5097 32.4323 31.114 32.1664 30.8627 32.1664" fill="#044C26"/>
<path d="M35.6472 35.1056C35.6472 32.8723 35.6593 33.6772 35.6533 32.4761C35.6533 32.2353 35.6704 32.1664 35.7189 32.1664C35.7673 32.1664 35.8693 32.303 35.9288 32.3645C36.0187 32.4698 36.911 33.4656 37.8336 34.4863C38.4262 35.1421 39.0793 35.897 39.271 36.1014L39.2054 32.9588C39.1994 32.5564 39.157 32.4208 38.9712 32.3708C38.8632 32.3468 38.7673 32.3395 38.7138 32.3395C38.6472 32.3395 38.6301 32.3208 38.6301 32.2957C38.6301 32.2592 38.6785 32.253 38.7502 32.253C39.0197 32.253 39.3074 32.2717 39.373 32.2717C39.4386 32.2717 39.6365 32.253 39.8818 32.253C39.9474 32.253 39.9898 32.2592 39.9898 32.2957C39.9898 32.3208 39.9655 32.3333 39.9241 32.3395C39.8767 32.3458 39.8404 32.352 39.7687 32.3645C39.6011 32.401 39.5587 32.4938 39.5587 32.9213L39.5466 36.5341C39.5466 36.9428 39.5345 36.973 39.4931 36.973C39.4457 36.973 39.373 36.9052 39.056 36.5768C38.9904 36.5153 38.1274 35.6061 37.4935 34.9002C36.799 34.1266 36.1216 33.3478 35.9299 33.1246L36.0076 36.0878C36.0197 36.5956 36.0792 36.7561 36.2408 36.8051C36.3548 36.8364 36.486 36.8427 36.5406 36.8427C36.5708 36.8427 36.588 36.8552 36.588 36.8792C36.588 36.9167 36.5527 36.9292 36.48 36.9292C36.1388 36.9292 35.8986 36.9104 35.8451 36.9104C35.7916 36.9104 35.5392 36.9292 35.2707 36.9292C35.2101 36.9292 35.1748 36.923 35.1748 36.8792C35.1748 36.8541 35.193 36.8427 35.2222 36.8427C35.2707 36.8427 35.3777 36.8364 35.4675 36.8051C35.6169 36.7624 35.6472 36.5831 35.6472 36.02V35.1046V35.1056Z" fill="#044C26"/>
<path d="M43.953 34.6114C43.9711 34.6114 43.9893 34.6114 43.9893 34.5801V34.4686C43.9893 33.6522 43.9893 33.5094 43.9772 33.3425C43.9651 33.1757 43.9408 33.0892 43.743 33.0516C43.7006 33.0454 43.641 33.0391 43.5936 33.0391C43.5512 33.0391 43.5219 33.0214 43.5219 32.9953C43.5219 32.9588 43.5522 32.9526 43.6057 32.9526C43.8571 32.9526 44.2104 32.9714 44.2346 32.9714C44.2588 32.9714 44.5939 32.9526 44.7736 32.9526C44.8342 32.9526 44.8695 32.9588 44.8695 32.9953C44.8695 33.0141 44.8513 33.0391 44.8039 33.0391C44.7676 33.0391 44.7201 33.0454 44.6838 33.0516C44.5223 33.0756 44.498 33.1757 44.4859 33.3488C44.4799 33.5156 44.4799 33.6585 44.4799 34.4748V35.4028C44.4799 35.9105 44.4799 36.312 44.5041 36.5351C44.5223 36.6831 44.5526 36.8072 44.708 36.826C44.7857 36.8385 44.8635 36.8448 44.918 36.8448C44.9654 36.8448 44.9957 36.8635 44.9957 36.8885C44.9957 36.9198 44.9654 36.9313 44.9059 36.9313C44.6061 36.9313 44.2588 36.9136 44.2295 36.9136C44.2053 36.9136 43.8581 36.9313 43.6966 36.9313C43.636 36.9313 43.6067 36.9188 43.6067 36.8823C43.6067 36.8646 43.6249 36.8448 43.6723 36.8448C43.7198 36.8448 43.7622 36.8448 43.8106 36.8322C43.9126 36.8135 43.9419 36.6779 43.96 36.5351C43.9903 36.313 43.9903 35.9231 43.9903 35.4216V34.871C43.9903 34.846 43.9721 34.8335 43.954 34.8335H41.7807C41.7625 34.8335 41.7504 34.8398 41.7504 34.871V35.4216C41.7504 35.922 41.7504 36.3245 41.7807 36.5476C41.7978 36.6831 41.8281 36.8072 41.9846 36.826C42.0623 36.8385 42.1521 36.8448 42.1996 36.8448C42.241 36.8448 42.2713 36.8635 42.2713 36.8885C42.2713 36.9136 42.247 36.9313 42.1935 36.9313C41.8877 36.9313 41.5344 36.9136 41.5051 36.9136C41.4869 36.9136 41.1215 36.9313 40.9661 36.9313C40.9065 36.9313 40.8702 36.9188 40.8702 36.8885C40.8702 36.8698 40.8823 36.8448 40.9358 36.8448C40.9842 36.8448 41.0317 36.8385 41.0791 36.826C41.1871 36.801 41.2114 36.6842 41.2295 36.5476C41.2649 36.3245 41.2598 35.9105 41.2598 35.4028V34.4873C41.2598 33.671 41.2598 33.5094 41.2477 33.3425C41.2356 33.182 41.1942 33.0641 41.0206 33.0454C40.9661 33.0391 40.9065 33.0329 40.8591 33.0329C40.8167 33.0329 40.7935 33.0141 40.7935 32.9953C40.7935 32.9588 40.8237 32.9526 40.8833 32.9526C41.1407 32.9526 41.4284 32.9714 41.5061 32.9714C41.5303 32.9714 41.8776 32.9526 42.0451 32.9526C42.1047 32.9526 42.135 32.9651 42.135 32.9953C42.135 33.0204 42.1108 33.0329 42.0754 33.0329C42.0401 33.0329 42.0219 33.0329 41.9553 33.0454C41.8059 33.0704 41.7696 33.1757 41.7575 33.3488C41.7514 33.5156 41.7514 33.6522 41.7514 34.4686V34.5801C41.7514 34.6114 41.7696 34.6114 41.7867 34.6114H43.955H43.953Z" fill="#044C26"/>
<path d="M46.4673 35.4216C46.437 35.4216 46.4188 35.4403 46.4067 35.4706L46.1433 36.2442C46.0837 36.4173 46.0413 36.5841 46.0413 36.6831C46.0413 36.7947 46.1069 36.8437 46.2391 36.8437H46.2805C46.334 36.8437 46.3522 36.8625 46.3522 36.8875C46.3522 36.9188 46.3037 36.9302 46.2624 36.9302C46.1311 36.9302 45.8556 36.9115 45.7889 36.9115C45.7284 36.9115 45.4659 36.9302 45.2136 36.9302C45.148 36.9302 45.1177 36.9177 45.1177 36.8875C45.1177 36.8625 45.1419 36.8437 45.1893 36.8437C45.2186 36.8437 45.2731 36.8437 45.3095 36.8375C45.5669 36.8124 45.6688 36.6081 45.7708 36.3485L46.969 33.0881C47.0346 32.9088 47.0527 32.8775 47.0951 32.8775C47.1244 32.8775 47.1486 32.9025 47.2142 33.0756C47.298 33.28 48.1126 35.4382 48.4306 36.2119C48.6285 36.7009 48.8021 36.7812 48.8859 36.8124C48.9636 36.8437 49.0474 36.8437 49.0898 36.8437C49.1322 36.8437 49.1614 36.8562 49.1614 36.8875C49.1614 36.9188 49.1372 36.9302 49.0716 36.9302C49.012 36.9302 48.5628 36.9302 48.1611 36.9177C48.047 36.9115 48.0117 36.9052 48.0117 36.875C48.0117 36.8562 48.0289 36.8375 48.0531 36.8312C48.0773 36.8187 48.1126 36.7884 48.0773 36.6957L47.6039 35.4518C47.5918 35.4341 47.5797 35.4205 47.5554 35.4205H46.4663L46.4673 35.4216ZM47.3354 32.4949C47.2395 32.4949 46.5389 32.0861 46.227 31.8641C46.1735 31.8203 46.1372 31.7953 46.1433 31.7713C46.1433 31.7525 46.1493 31.74 46.2028 31.7212C46.2684 31.6899 46.436 31.6347 46.4784 31.6284C46.5501 31.6159 46.5561 31.6284 46.6217 31.6962C46.7479 31.8265 47.0649 32.1904 47.3162 32.4073C47.3525 32.4386 47.3647 32.4625 47.3647 32.4813C47.3647 32.4938 47.3586 32.4938 47.3344 32.4938M47.4848 35.2047C47.509 35.2047 47.509 35.187 47.5029 35.1671L47.0295 33.8002C46.9992 33.7137 46.9932 33.7137 46.9639 33.8002L46.5147 35.1671C46.5026 35.1922 46.5147 35.2047 46.5268 35.2047H47.4848Z" fill="#044C26"/>
<path d="M51.2218 32.8421C51.0895 32.4959 50.9997 32.4281 50.7907 32.3656C50.7009 32.3406 50.599 32.3406 50.5626 32.3406C50.5263 32.3406 50.5142 32.3218 50.5142 32.2968C50.5142 32.2603 50.5747 32.254 50.6696 32.254C50.9573 32.254 51.2803 32.2728 51.352 32.2728C51.4115 32.2728 51.67 32.254 51.8971 32.254C52.0051 32.254 52.0586 32.2665 52.0586 32.2968C52.0586 32.327 52.0404 32.3406 51.999 32.3406C51.9324 32.3406 51.8254 32.3468 51.7719 32.3718C51.7053 32.4031 51.6942 32.4521 51.6942 32.4959C51.6942 32.5512 51.7477 32.719 51.8143 32.8921L53.0357 36.1775C53.3829 35.3486 54.1854 33.1903 54.3177 32.7441C54.348 32.6513 54.3712 32.5647 54.3712 32.5095C54.3712 32.4605 54.354 32.3979 54.2934 32.3677C54.2218 32.3426 54.1319 32.3426 54.0663 32.3426C54.03 32.3426 53.9997 32.3364 53.9997 32.3051C53.9997 32.2686 54.036 32.2561 54.1319 32.2561C54.3712 32.2561 54.6467 32.2749 54.7194 32.2749C54.7548 32.2749 55.0122 32.2561 55.1858 32.2561C55.2514 32.2561 55.2877 32.2686 55.2877 32.2988C55.2877 32.3291 55.2635 32.3426 55.2161 32.3426C55.1747 32.3426 55.0424 32.3426 54.9284 32.4167C54.8506 32.4719 54.7608 32.5772 54.5993 32.9985C54.5337 33.1715 54.2339 33.9139 53.929 34.675C53.5636 35.5779 53.2941 36.2463 53.1558 36.5497C52.9883 36.9209 52.964 37.0199 52.9045 37.0199C52.8328 37.0199 52.8025 36.9334 52.6885 36.6362L51.2218 32.8441V32.8421Z" fill="#044C26"/>
<path d="M55.9158 34.4748C55.9158 33.6585 55.9158 33.5094 55.9037 33.3425C55.8916 33.1757 55.8562 33.0829 55.7301 33.0579C55.6705 33.0454 55.6281 33.0454 55.5928 33.0391C55.5504 33.0329 55.5272 33.0214 55.5272 32.9953C55.5272 32.9641 55.5514 32.9526 55.617 32.9526C55.8027 32.9526 56.1439 32.9714 56.1621 32.9714C56.1863 32.9714 56.5336 32.9526 56.7011 32.9526C56.7607 32.9526 56.791 32.9651 56.791 32.9953C56.791 33.0204 56.7728 33.0329 56.7243 33.0391C56.689 33.0454 56.6587 33.0454 56.6163 33.0516C56.4427 33.0767 56.4256 33.1695 56.4124 33.3488C56.4003 33.5156 56.4064 33.6585 56.4064 34.4748V35.4028C56.4064 35.8793 56.4003 36.312 56.4296 36.5351C56.4538 36.7144 56.478 36.7822 56.6335 36.8197C56.7112 36.8385 56.8374 36.8448 56.8606 36.8448C56.9141 36.851 56.9262 36.8635 56.9262 36.8885C56.9262 36.9136 56.902 36.9313 56.8424 36.9313C56.5376 36.9313 56.1893 36.9125 56.1601 36.9125C56.1419 36.9125 55.7886 36.9313 55.621 36.9313C55.5675 36.9313 55.5251 36.9188 55.5251 36.8885C55.5251 36.8635 55.5494 36.8448 55.6029 36.8448C55.6321 36.8448 55.6988 36.8385 55.7462 36.826C55.8482 36.802 55.8663 36.6779 55.8845 36.5288C55.9138 36.3057 55.9138 35.8668 55.9138 35.4028V34.4748H55.9158Z" fill="#044C26"/>
<path d="M58.1434 34.4748C58.1434 33.6647 58.1434 33.5156 58.1313 33.3488C58.1192 33.1757 58.0778 33.0892 57.9042 33.0516C57.8678 33.0454 57.8083 33.0391 57.7608 33.0391C57.7194 33.0391 57.6831 33.0214 57.6831 33.0026C57.6831 32.9651 57.7134 32.9526 57.7729 32.9526C57.8931 32.9526 58.0546 32.9651 58.3897 32.9714C58.42 32.9714 59.4859 32.9714 59.6061 32.9651C59.7262 32.9588 59.7918 32.9526 59.8392 32.9338C59.8746 32.9213 59.8806 32.9151 59.9049 32.9151C59.917 32.9151 59.9291 32.9276 59.9291 32.9588C59.9291 32.9953 59.8927 33.0829 59.8806 33.2372C59.8746 33.3425 59.8685 33.4416 59.8624 33.5584C59.8624 33.6136 59.8503 33.6512 59.8201 33.6512C59.7898 33.6512 59.7777 33.6261 59.7777 33.5834C59.7716 33.4906 59.7534 33.4291 59.7363 33.3853C59.6999 33.2612 59.6464 33.2185 59.3466 33.1997C59.2689 33.1934 58.6764 33.1872 58.6643 33.1872C58.6461 33.1872 58.634 33.1997 58.634 33.2372V34.6417C58.634 34.6782 58.64 34.7032 58.6703 34.7032C58.742 34.7032 59.3537 34.6969 59.4789 34.6844C59.6162 34.6782 59.706 34.6594 59.7544 34.5916C59.7787 34.5551 59.7968 34.5426 59.8201 34.5426C59.8322 34.5426 59.8443 34.5489 59.8443 34.5791C59.8443 34.6093 59.8201 34.7272 59.8019 34.9075C59.7847 35.0806 59.7847 35.2047 59.7777 35.285C59.7716 35.335 59.7595 35.3527 59.7363 35.3527C59.706 35.3527 59.6999 35.3162 59.6999 35.2725C59.6999 35.2349 59.6939 35.1734 59.6818 35.1244C59.6575 35.0441 59.6222 34.9576 59.3941 34.9388C59.2568 34.9263 58.7713 34.9138 58.6754 34.9138C58.64 34.9138 58.633 34.9326 58.633 34.9576V35.409C58.633 35.6009 58.6269 36.1451 58.633 36.2505C58.6451 36.4798 58.6754 36.5966 58.8005 36.6529C58.8904 36.6967 59.0337 36.7082 59.2376 36.7082C59.3517 36.7082 59.5435 36.7144 59.6929 36.6717C59.8725 36.6164 59.9139 36.4923 59.9624 36.263C59.9745 36.2014 59.9927 36.1764 60.0159 36.1764C60.0512 36.1764 60.0512 36.2317 60.0512 36.2692C60.0512 36.312 60.0038 36.7019 59.9856 36.8072C59.9614 36.9313 59.919 36.9438 59.7221 36.9438C59.3264 36.9438 59.1589 36.9313 58.9499 36.9313C58.74 36.925 58.4644 36.9125 58.2433 36.9125C58.105 36.9125 57.992 36.9313 57.8476 36.9313C57.7941 36.9313 57.7639 36.9188 57.7639 36.8885C57.7639 36.8635 57.7881 36.8448 57.8174 36.8448C57.8527 36.8448 57.8951 36.8385 57.9375 36.826C58.0455 36.801 58.1172 36.7207 58.1293 36.337C58.1353 36.1264 58.1414 35.873 58.1414 35.4028V34.4748H58.1434ZM59.0297 31.7723C59.1256 31.8401 59.6404 32.1988 59.7363 32.2728C59.7958 32.3166 59.8019 32.328 59.8019 32.3406C59.8019 32.3593 59.7898 32.3593 59.7716 32.3718L59.5627 32.5084C59.5445 32.5209 59.5263 32.5335 59.5031 32.5084C59.3598 32.3781 59.0297 32.1498 58.9166 32.0872C58.8863 32.0684 58.8631 32.0622 58.845 32.0622C58.8328 32.0622 58.8086 32.0684 58.7612 32.0935C58.6178 32.1737 58.312 32.3593 58.1202 32.4771C58.0717 32.5084 58.0303 32.5272 58.0061 32.5272C57.9698 32.5272 57.9577 32.4959 58.0182 32.4532C58.2343 32.2863 58.7491 31.8526 58.8268 31.7848C58.8803 31.7473 58.9106 31.7296 58.9287 31.7296C58.953 31.7296 58.9701 31.7421 59.0307 31.7734M58.7602 37.7404C58.7602 37.6226 58.85 37.4808 59.0115 37.4808C59.1548 37.4808 59.2689 37.5861 59.2689 37.7341C59.2689 37.8707 59.167 38 59.0115 38C58.8439 38 58.7602 37.8707 58.7602 37.7404Z" fill="#044C26"/>
<path d="M62.4365 35.4028C62.4365 35.8793 62.4426 36.3182 62.4668 36.5476C62.484 36.6956 62.4961 36.7822 62.6465 36.8197C62.7181 36.8385 62.8322 36.8437 62.8796 36.8437C62.9271 36.8437 62.9513 36.8625 62.9513 36.8812C62.9513 36.9125 62.9331 36.9302 62.8736 36.9302C62.5677 36.9302 62.2144 36.9125 62.1912 36.9125C62.168 36.9125 61.8137 36.9302 61.6582 36.9302C61.5916 36.9302 61.5684 36.9177 61.5684 36.8875C61.5684 36.8687 61.5856 36.8437 61.634 36.8437C61.6825 36.8437 61.7178 36.8437 61.7663 36.8374C61.8803 36.8187 61.8985 36.7447 61.9217 36.534C61.9459 36.312 61.9459 35.8657 61.9459 35.4017V33.1934C61.7481 33.1934 61.4311 33.1934 61.1909 33.1997C60.8073 33.2059 60.7235 33.2675 60.6397 33.3978C60.5862 33.4843 60.562 33.5583 60.5499 33.5896C60.5317 33.6324 60.5196 33.6397 60.4964 33.6397C60.4732 33.6397 60.4661 33.6147 60.4661 33.5844C60.4601 33.5469 60.5499 33.1392 60.5862 32.9724C60.6044 32.8984 60.6216 32.8733 60.6397 32.8733C60.6811 32.8733 60.7952 32.9296 60.9032 32.9422C61.1131 32.9672 61.2807 32.9734 61.2868 32.9734H63.2511C63.4187 32.9734 63.5984 32.9609 63.6821 32.9422C63.7599 32.9234 63.778 32.9171 63.7962 32.9171C63.8194 32.9171 63.8315 32.9484 63.8315 32.9724C63.8315 33.1455 63.8194 33.5542 63.8194 33.6032C63.8194 33.6584 63.7962 33.6772 63.778 33.6772C63.7478 33.6772 63.7356 33.6522 63.7356 33.6032C63.7356 33.5844 63.7356 33.5782 63.7296 33.5166C63.7054 33.2695 63.6276 33.207 63.023 33.2007C62.7959 33.2007 62.6101 33.1945 62.4365 33.1945V35.4028Z" fill="#044C26"/>
</g>
<defs>
<clipPath id="clip0_79_934">
<rect width="64" height="38" fill="white"/>
</clipPath>
</defs>
</svg>
